<mxfile host="app.diagrams.net" modified="2024-04-25T23:18:25.858Z" agent="Mozilla/5.0 (Windows NT 10.0; Win64; x64) AppleWebKit/537.36 (KHTML, like Gecko) Chrome/121.0.0.0 Safari/537.36 OPR/107.0.0.0" etag="NskACOROfxM4Hta6t3WP" version="24.3.0" type="device">
  <diagram name="P치gina-1" id="4oZVq3s-SqyUW9YwgcVH">
    <mxGraphModel dx="1393" dy="758" grid="1" gridSize="10" guides="1" tooltips="1" connect="1" arrows="1" fold="1" page="1" pageScale="1" pageWidth="827" pageHeight="1169" math="0" shadow="0">
      <root>
        <mxCell id="0" />
        <mxCell id="1" parent="0" />
        <mxCell id="hCytQc41rhXUvgAOdrMq-3" value="&lt;p style=&quot;margin:0px;margin-top:4px;text-align:center;&quot;&gt;&lt;b&gt;Personaje&lt;/b&gt;&lt;/p&gt;&lt;hr size=&quot;1&quot; style=&quot;border-style:solid;&quot;&gt;&lt;p style=&quot;margin:0px;margin-left:4px;&quot;&gt;-vida : int&lt;/p&gt;&lt;p style=&quot;margin:0px;margin-left:4px;&quot;&gt;-da침o : int&lt;/p&gt;&lt;p style=&quot;margin:0px;margin-left:4px;&quot;&gt;-estaMuerto : bool&lt;/p&gt;&lt;p style=&quot;margin:0px;margin-left:4px;&quot;&gt;-nombre : string&lt;/p&gt;&lt;hr size=&quot;1&quot; style=&quot;border-style:solid;&quot;&gt;&lt;p style=&quot;margin:0px;margin-left:4px;&quot;&gt;+ curar()&lt;/p&gt;&lt;p style=&quot;margin:0px;margin-left:4px;&quot;&gt;+ hacer da침o()&lt;/p&gt;&lt;p style=&quot;margin:0px;margin-left:4px;&quot;&gt;+ cambiar nombre&lt;/p&gt;" style="verticalAlign=top;align=left;overflow=fill;html=1;whiteSpace=wrap;" parent="1" vertex="1">
          <mxGeometry x="30" y="170" width="160" height="150" as="geometry" />
        </mxCell>
        <mxCell id="hCytQc41rhXUvgAOdrMq-4" value="" style="ellipse;whiteSpace=wrap;html=1;" parent="1" vertex="1">
          <mxGeometry x="390" y="10" width="120" height="80" as="geometry" />
        </mxCell>
        <mxCell id="hCytQc41rhXUvgAOdrMq-5" value="curar()" style="text;html=1;align=center;verticalAlign=middle;whiteSpace=wrap;rounded=0;" parent="1" vertex="1">
          <mxGeometry x="420" y="35" width="60" height="30" as="geometry" />
        </mxCell>
        <mxCell id="hCytQc41rhXUvgAOdrMq-8" value="" style="shape=parallelogram;perimeter=parallelogramPerimeter;whiteSpace=wrap;html=1;fixedSize=1;" parent="1" vertex="1">
          <mxGeometry x="380" y="150" width="120" height="60" as="geometry" />
        </mxCell>
        <mxCell id="hCytQc41rhXUvgAOdrMq-9" style="edgeStyle=orthogonalEdgeStyle;rounded=0;orthogonalLoop=1;jettySize=auto;html=1;entryX=0.589;entryY=-0.061;entryDx=0;entryDy=0;entryPerimeter=0;" parent="1" source="hCytQc41rhXUvgAOdrMq-4" target="hCytQc41rhXUvgAOdrMq-8" edge="1">
          <mxGeometry relative="1" as="geometry" />
        </mxCell>
        <mxCell id="hCytQc41rhXUvgAOdrMq-10" value="getVida" style="text;html=1;align=center;verticalAlign=middle;whiteSpace=wrap;rounded=0;" parent="1" vertex="1">
          <mxGeometry x="410" y="165" width="60" height="30" as="geometry" />
        </mxCell>
        <mxCell id="hCytQc41rhXUvgAOdrMq-13" value="" style="rounded=0;whiteSpace=wrap;html=1;" parent="1" vertex="1">
          <mxGeometry x="380" y="250" width="120" height="60" as="geometry" />
        </mxCell>
        <mxCell id="hCytQc41rhXUvgAOdrMq-14" style="edgeStyle=orthogonalEdgeStyle;rounded=0;orthogonalLoop=1;jettySize=auto;html=1;entryX=0.5;entryY=0;entryDx=0;entryDy=0;" parent="1" source="hCytQc41rhXUvgAOdrMq-8" target="hCytQc41rhXUvgAOdrMq-13" edge="1">
          <mxGeometry relative="1" as="geometry" />
        </mxCell>
        <mxCell id="hCytQc41rhXUvgAOdrMq-15" value="vida + cantidadASumar&lt;div&gt;&lt;br&gt;&lt;/div&gt;" style="text;html=1;align=center;verticalAlign=middle;whiteSpace=wrap;rounded=0;" parent="1" vertex="1">
          <mxGeometry x="410" y="265" width="60" height="30" as="geometry" />
        </mxCell>
        <mxCell id="hCytQc41rhXUvgAOdrMq-20" style="edgeStyle=orthogonalEdgeStyle;rounded=0;orthogonalLoop=1;jettySize=auto;html=1;entryX=0.5;entryY=0;entryDx=0;entryDy=0;" parent="1" source="hCytQc41rhXUvgAOdrMq-16" target="hCytQc41rhXUvgAOdrMq-18" edge="1">
          <mxGeometry relative="1" as="geometry" />
        </mxCell>
        <mxCell id="hCytQc41rhXUvgAOdrMq-16" value="Resultado = vida + cantidadASumar" style="shape=document;whiteSpace=wrap;html=1;boundedLbl=1;" parent="1" vertex="1">
          <mxGeometry x="390" y="350" width="110" height="80" as="geometry" />
        </mxCell>
        <mxCell id="hCytQc41rhXUvgAOdrMq-17" style="edgeStyle=orthogonalEdgeStyle;rounded=0;orthogonalLoop=1;jettySize=auto;html=1;entryX=0.5;entryY=0;entryDx=0;entryDy=0;exitX=0.5;exitY=1;exitDx=0;exitDy=0;" parent="1" source="hCytQc41rhXUvgAOdrMq-13" target="hCytQc41rhXUvgAOdrMq-16" edge="1">
          <mxGeometry relative="1" as="geometry" />
        </mxCell>
        <mxCell id="hCytQc41rhXUvgAOdrMq-18" value="Fin" style="ellipse;whiteSpace=wrap;html=1;" parent="1" vertex="1">
          <mxGeometry x="385" y="470" width="120" height="40" as="geometry" />
        </mxCell>
        <mxCell id="hCytQc41rhXUvgAOdrMq-28" style="edgeStyle=orthogonalEdgeStyle;rounded=0;orthogonalLoop=1;jettySize=auto;html=1;entryX=0.5;entryY=0;entryDx=0;entryDy=0;" parent="1" source="hCytQc41rhXUvgAOdrMq-22" target="hCytQc41rhXUvgAOdrMq-23" edge="1">
          <mxGeometry relative="1" as="geometry">
            <Array as="points">
              <mxPoint x="595" y="247" />
            </Array>
          </mxGeometry>
        </mxCell>
        <mxCell id="hCytQc41rhXUvgAOdrMq-44" value="False" style="edgeLabel;html=1;align=center;verticalAlign=middle;resizable=0;points=[];" parent="hCytQc41rhXUvgAOdrMq-28" connectable="0" vertex="1">
          <mxGeometry x="0.0499" y="-1" relative="1" as="geometry">
            <mxPoint as="offset" />
          </mxGeometry>
        </mxCell>
        <mxCell id="hCytQc41rhXUvgAOdrMq-29" style="edgeStyle=orthogonalEdgeStyle;rounded=0;orthogonalLoop=1;jettySize=auto;html=1;entryX=0.5;entryY=0;entryDx=0;entryDy=0;" parent="1" source="hCytQc41rhXUvgAOdrMq-22" target="hCytQc41rhXUvgAOdrMq-27" edge="1">
          <mxGeometry relative="1" as="geometry">
            <Array as="points">
              <mxPoint x="760" y="247" />
            </Array>
          </mxGeometry>
        </mxCell>
        <mxCell id="hCytQc41rhXUvgAOdrMq-43" value="True" style="edgeLabel;html=1;align=center;verticalAlign=middle;resizable=0;points=[];" parent="hCytQc41rhXUvgAOdrMq-29" connectable="0" vertex="1">
          <mxGeometry x="0.0677" y="-1" relative="1" as="geometry">
            <mxPoint as="offset" />
          </mxGeometry>
        </mxCell>
        <mxCell id="hCytQc41rhXUvgAOdrMq-22" value="vida &amp;lt; 0" style="rhombus;whiteSpace=wrap;html=1;" parent="1" vertex="1">
          <mxGeometry x="640" y="220" width="80" height="55" as="geometry" />
        </mxCell>
        <mxCell id="hCytQc41rhXUvgAOdrMq-31" style="edgeStyle=orthogonalEdgeStyle;rounded=0;orthogonalLoop=1;jettySize=auto;html=1;entryX=0;entryY=0.5;entryDx=0;entryDy=0;" parent="1" source="hCytQc41rhXUvgAOdrMq-23" target="hCytQc41rhXUvgAOdrMq-30" edge="1">
          <mxGeometry relative="1" as="geometry" />
        </mxCell>
        <mxCell id="hCytQc41rhXUvgAOdrMq-23" value="estaMuerto = false" style="shape=document;whiteSpace=wrap;html=1;boundedLbl=1;" parent="1" vertex="1">
          <mxGeometry x="550" y="330" width="90" height="60" as="geometry" />
        </mxCell>
        <mxCell id="hCytQc41rhXUvgAOdrMq-32" style="edgeStyle=orthogonalEdgeStyle;rounded=0;orthogonalLoop=1;jettySize=auto;html=1;entryX=1;entryY=0.5;entryDx=0;entryDy=0;" parent="1" source="hCytQc41rhXUvgAOdrMq-27" target="hCytQc41rhXUvgAOdrMq-30" edge="1">
          <mxGeometry relative="1" as="geometry">
            <Array as="points">
              <mxPoint x="760" y="500" />
            </Array>
          </mxGeometry>
        </mxCell>
        <mxCell id="hCytQc41rhXUvgAOdrMq-27" value="estaMuerto = true" style="shape=document;whiteSpace=wrap;html=1;boundedLbl=1;" parent="1" vertex="1">
          <mxGeometry x="720" y="330" width="80" height="60" as="geometry" />
        </mxCell>
        <mxCell id="hCytQc41rhXUvgAOdrMq-30" value="Fin" style="ellipse;whiteSpace=wrap;html=1;" parent="1" vertex="1">
          <mxGeometry x="630" y="460" width="120" height="80" as="geometry" />
        </mxCell>
        <mxCell id="hCytQc41rhXUvgAOdrMq-34" style="edgeStyle=orthogonalEdgeStyle;rounded=0;orthogonalLoop=1;jettySize=auto;html=1;entryX=0.5;entryY=0;entryDx=0;entryDy=0;" parent="1" source="hCytQc41rhXUvgAOdrMq-33" target="hCytQc41rhXUvgAOdrMq-22" edge="1">
          <mxGeometry relative="1" as="geometry" />
        </mxCell>
        <mxCell id="hCytQc41rhXUvgAOdrMq-33" value="getIsDead()" style="ellipse;whiteSpace=wrap;html=1;" parent="1" vertex="1">
          <mxGeometry x="620" y="80" width="120" height="80" as="geometry" />
        </mxCell>
        <mxCell id="hCytQc41rhXUvgAOdrMq-37" style="edgeStyle=orthogonalEdgeStyle;rounded=0;orthogonalLoop=1;jettySize=auto;html=1;entryX=0.5;entryY=0;entryDx=0;entryDy=0;" parent="1" source="hCytQc41rhXUvgAOdrMq-35" target="hCytQc41rhXUvgAOdrMq-36" edge="1">
          <mxGeometry relative="1" as="geometry" />
        </mxCell>
        <mxCell id="hCytQc41rhXUvgAOdrMq-35" value="hacerDa침o()" style="ellipse;whiteSpace=wrap;html=1;" parent="1" vertex="1">
          <mxGeometry x="250" y="670" width="120" height="80" as="geometry" />
        </mxCell>
        <mxCell id="hCytQc41rhXUvgAOdrMq-42" style="edgeStyle=orthogonalEdgeStyle;rounded=0;orthogonalLoop=1;jettySize=auto;html=1;entryX=0.5;entryY=0;entryDx=0;entryDy=0;" parent="1" source="hCytQc41rhXUvgAOdrMq-36" target="hCytQc41rhXUvgAOdrMq-38" edge="1">
          <mxGeometry relative="1" as="geometry" />
        </mxCell>
        <mxCell id="hCytQc41rhXUvgAOdrMq-36" value="getVida()" style="shape=parallelogram;perimeter=parallelogramPerimeter;whiteSpace=wrap;html=1;fixedSize=1;" parent="1" vertex="1">
          <mxGeometry x="250" y="790" width="120" height="60" as="geometry" />
        </mxCell>
        <mxCell id="hCytQc41rhXUvgAOdrMq-39" style="edgeStyle=orthogonalEdgeStyle;rounded=0;orthogonalLoop=1;jettySize=auto;html=1;entryX=0.5;entryY=0;entryDx=0;entryDy=0;" parent="1" source="hCytQc41rhXUvgAOdrMq-38" target="hCytQc41rhXUvgAOdrMq-48" edge="1">
          <mxGeometry relative="1" as="geometry">
            <mxPoint x="160" y="1030" as="targetPoint" />
          </mxGeometry>
        </mxCell>
        <mxCell id="hCytQc41rhXUvgAOdrMq-46" value="False" style="edgeLabel;html=1;align=center;verticalAlign=middle;resizable=0;points=[];" parent="hCytQc41rhXUvgAOdrMq-39" connectable="0" vertex="1">
          <mxGeometry x="0.2556" y="3" relative="1" as="geometry">
            <mxPoint as="offset" />
          </mxGeometry>
        </mxCell>
        <mxCell id="hCytQc41rhXUvgAOdrMq-41" style="edgeStyle=orthogonalEdgeStyle;rounded=0;orthogonalLoop=1;jettySize=auto;html=1;entryX=1;entryY=0.5;entryDx=0;entryDy=0;exitX=1;exitY=0.5;exitDx=0;exitDy=0;" parent="1" source="hCytQc41rhXUvgAOdrMq-38" target="hCytQc41rhXUvgAOdrMq-53" edge="1">
          <mxGeometry relative="1" as="geometry">
            <mxPoint x="450" y="1030" as="targetPoint" />
            <Array as="points">
              <mxPoint x="530" y="920" />
              <mxPoint x="530" y="1480" />
            </Array>
          </mxGeometry>
        </mxCell>
        <mxCell id="hCytQc41rhXUvgAOdrMq-45" value="True" style="edgeLabel;html=1;align=center;verticalAlign=middle;resizable=0;points=[];" parent="hCytQc41rhXUvgAOdrMq-41" connectable="0" vertex="1">
          <mxGeometry x="0.271" y="1" relative="1" as="geometry">
            <mxPoint as="offset" />
          </mxGeometry>
        </mxCell>
        <mxCell id="hCytQc41rhXUvgAOdrMq-38" value="getIsDead()" style="rhombus;whiteSpace=wrap;html=1;" parent="1" vertex="1">
          <mxGeometry x="255" y="890" width="110" height="60" as="geometry" />
        </mxCell>
        <mxCell id="hCytQc41rhXUvgAOdrMq-50" style="edgeStyle=orthogonalEdgeStyle;rounded=0;orthogonalLoop=1;jettySize=auto;html=1;entryX=0.5;entryY=0;entryDx=0;entryDy=0;" parent="1" source="hCytQc41rhXUvgAOdrMq-48" target="hCytQc41rhXUvgAOdrMq-49" edge="1">
          <mxGeometry relative="1" as="geometry" />
        </mxCell>
        <mxCell id="hCytQc41rhXUvgAOdrMq-48" value="getDa침oRecibido" style="shape=parallelogram;perimeter=parallelogramPerimeter;whiteSpace=wrap;html=1;fixedSize=1;" parent="1" vertex="1">
          <mxGeometry x="100" y="1030" width="120" height="60" as="geometry" />
        </mxCell>
        <mxCell id="hCytQc41rhXUvgAOdrMq-52" style="edgeStyle=orthogonalEdgeStyle;rounded=0;orthogonalLoop=1;jettySize=auto;html=1;entryX=0.5;entryY=0;entryDx=0;entryDy=0;" parent="1" source="hCytQc41rhXUvgAOdrMq-49" target="hCytQc41rhXUvgAOdrMq-51" edge="1">
          <mxGeometry relative="1" as="geometry" />
        </mxCell>
        <mxCell id="hCytQc41rhXUvgAOdrMq-49" value="vida = vida - da침oRecibido" style="rounded=0;whiteSpace=wrap;html=1;" parent="1" vertex="1">
          <mxGeometry x="100" y="1140" width="120" height="60" as="geometry" />
        </mxCell>
        <mxCell id="hCytQc41rhXUvgAOdrMq-73" style="edgeStyle=orthogonalEdgeStyle;rounded=0;orthogonalLoop=1;jettySize=auto;html=1;" parent="1" source="hCytQc41rhXUvgAOdrMq-51" target="hCytQc41rhXUvgAOdrMq-72" edge="1">
          <mxGeometry relative="1" as="geometry" />
        </mxCell>
        <mxCell id="hCytQc41rhXUvgAOdrMq-51" value="vidaActual = vida" style="shape=document;whiteSpace=wrap;html=1;boundedLbl=1;" parent="1" vertex="1">
          <mxGeometry x="100" y="1250" width="120" height="70" as="geometry" />
        </mxCell>
        <mxCell id="hCytQc41rhXUvgAOdrMq-53" value="Fin" style="ellipse;whiteSpace=wrap;html=1;" parent="1" vertex="1">
          <mxGeometry x="365" y="1440" width="120" height="80" as="geometry" />
        </mxCell>
        <mxCell id="hCytQc41rhXUvgAOdrMq-78" style="edgeStyle=orthogonalEdgeStyle;rounded=0;orthogonalLoop=1;jettySize=auto;html=1;entryX=0.5;entryY=0;entryDx=0;entryDy=0;" parent="1" source="hCytQc41rhXUvgAOdrMq-72" target="hCytQc41rhXUvgAOdrMq-53" edge="1">
          <mxGeometry relative="1" as="geometry" />
        </mxCell>
        <mxCell id="hCytQc41rhXUvgAOdrMq-79" value="False&lt;div&gt;&lt;br&gt;&lt;/div&gt;" style="edgeLabel;html=1;align=center;verticalAlign=middle;resizable=0;points=[];" parent="hCytQc41rhXUvgAOdrMq-78" connectable="0" vertex="1">
          <mxGeometry x="-0.3391" y="4" relative="1" as="geometry">
            <mxPoint as="offset" />
          </mxGeometry>
        </mxCell>
        <mxCell id="hCytQc41rhXUvgAOdrMq-72" value="getIsDead()" style="rhombus;whiteSpace=wrap;html=1;" parent="1" vertex="1">
          <mxGeometry x="85" y="1360" width="150" height="80" as="geometry" />
        </mxCell>
        <mxCell id="hCytQc41rhXUvgAOdrMq-77" style="edgeStyle=orthogonalEdgeStyle;rounded=0;orthogonalLoop=1;jettySize=auto;html=1;entryX=0.5;entryY=1;entryDx=0;entryDy=0;" parent="1" source="hCytQc41rhXUvgAOdrMq-74" target="hCytQc41rhXUvgAOdrMq-53" edge="1">
          <mxGeometry relative="1" as="geometry" />
        </mxCell>
        <mxCell id="hCytQc41rhXUvgAOdrMq-74" value="Muerte()" style="rounded=0;whiteSpace=wrap;html=1;" parent="1" vertex="1">
          <mxGeometry x="20" y="1510" width="120" height="60" as="geometry" />
        </mxCell>
        <mxCell id="hCytQc41rhXUvgAOdrMq-75" style="edgeStyle=orthogonalEdgeStyle;rounded=0;orthogonalLoop=1;jettySize=auto;html=1;entryX=0.35;entryY=-0.017;entryDx=0;entryDy=0;entryPerimeter=0;" parent="1" source="hCytQc41rhXUvgAOdrMq-72" target="hCytQc41rhXUvgAOdrMq-74" edge="1">
          <mxGeometry relative="1" as="geometry">
            <Array as="points">
              <mxPoint x="62" y="1400" />
            </Array>
          </mxGeometry>
        </mxCell>
        <mxCell id="hCytQc41rhXUvgAOdrMq-76" value="True" style="edgeLabel;html=1;align=center;verticalAlign=middle;resizable=0;points=[];" parent="hCytQc41rhXUvgAOdrMq-75" connectable="0" vertex="1">
          <mxGeometry x="-0.2786" y="1" relative="1" as="geometry">
            <mxPoint as="offset" />
          </mxGeometry>
        </mxCell>
        <mxCell id="hCytQc41rhXUvgAOdrMq-80" style="edgeStyle=orthogonalEdgeStyle;rounded=0;orthogonalLoop=1;jettySize=auto;html=1;entryX=0.5;entryY=0;entryDx=0;entryDy=0;" parent="1" source="hCytQc41rhXUvgAOdrMq-81" target="hCytQc41rhXUvgAOdrMq-83" edge="1">
          <mxGeometry relative="1" as="geometry" />
        </mxCell>
        <mxCell id="hCytQc41rhXUvgAOdrMq-81" value="hacerDa침o()" style="ellipse;whiteSpace=wrap;html=1;" parent="1" vertex="1">
          <mxGeometry x="860" y="770" width="120" height="80" as="geometry" />
        </mxCell>
        <mxCell id="hCytQc41rhXUvgAOdrMq-82" style="edgeStyle=orthogonalEdgeStyle;rounded=0;orthogonalLoop=1;jettySize=auto;html=1;entryX=0.5;entryY=0;entryDx=0;entryDy=0;" parent="1" source="hCytQc41rhXUvgAOdrMq-83" target="hCytQc41rhXUvgAOdrMq-88" edge="1">
          <mxGeometry relative="1" as="geometry" />
        </mxCell>
        <mxCell id="hCytQc41rhXUvgAOdrMq-83" value="getVida()" style="shape=parallelogram;perimeter=parallelogramPerimeter;whiteSpace=wrap;html=1;fixedSize=1;" parent="1" vertex="1">
          <mxGeometry x="860" y="890" width="120" height="60" as="geometry" />
        </mxCell>
        <mxCell id="hCytQc41rhXUvgAOdrMq-84" style="edgeStyle=orthogonalEdgeStyle;rounded=0;orthogonalLoop=1;jettySize=auto;html=1;entryX=0.5;entryY=0;entryDx=0;entryDy=0;" parent="1" source="hCytQc41rhXUvgAOdrMq-88" target="hCytQc41rhXUvgAOdrMq-90" edge="1">
          <mxGeometry relative="1" as="geometry">
            <mxPoint x="770" y="1130" as="targetPoint" />
          </mxGeometry>
        </mxCell>
        <mxCell id="hCytQc41rhXUvgAOdrMq-85" value="False" style="edgeLabel;html=1;align=center;verticalAlign=middle;resizable=0;points=[];" parent="hCytQc41rhXUvgAOdrMq-84" connectable="0" vertex="1">
          <mxGeometry x="0.2556" y="3" relative="1" as="geometry">
            <mxPoint as="offset" />
          </mxGeometry>
        </mxCell>
        <mxCell id="hCytQc41rhXUvgAOdrMq-86" style="edgeStyle=orthogonalEdgeStyle;rounded=0;orthogonalLoop=1;jettySize=auto;html=1;entryX=1;entryY=0.5;entryDx=0;entryDy=0;exitX=1;exitY=0.5;exitDx=0;exitDy=0;" parent="1" source="hCytQc41rhXUvgAOdrMq-88" target="hCytQc41rhXUvgAOdrMq-95" edge="1">
          <mxGeometry relative="1" as="geometry">
            <mxPoint x="1060" y="1130" as="targetPoint" />
            <Array as="points">
              <mxPoint x="1140" y="1020" />
              <mxPoint x="1140" y="1580" />
            </Array>
          </mxGeometry>
        </mxCell>
        <mxCell id="hCytQc41rhXUvgAOdrMq-87" value="True" style="edgeLabel;html=1;align=center;verticalAlign=middle;resizable=0;points=[];" parent="hCytQc41rhXUvgAOdrMq-86" connectable="0" vertex="1">
          <mxGeometry x="0.271" y="1" relative="1" as="geometry">
            <mxPoint as="offset" />
          </mxGeometry>
        </mxCell>
        <mxCell id="hCytQc41rhXUvgAOdrMq-88" value="getIsDead()" style="rhombus;whiteSpace=wrap;html=1;" parent="1" vertex="1">
          <mxGeometry x="865" y="990" width="110" height="60" as="geometry" />
        </mxCell>
        <mxCell id="hCytQc41rhXUvgAOdrMq-89" style="edgeStyle=orthogonalEdgeStyle;rounded=0;orthogonalLoop=1;jettySize=auto;html=1;entryX=0.5;entryY=0;entryDx=0;entryDy=0;" parent="1" source="hCytQc41rhXUvgAOdrMq-90" target="hCytQc41rhXUvgAOdrMq-92" edge="1">
          <mxGeometry relative="1" as="geometry" />
        </mxCell>
        <mxCell id="hCytQc41rhXUvgAOdrMq-90" value="getDa침oRecibido" style="shape=parallelogram;perimeter=parallelogramPerimeter;whiteSpace=wrap;html=1;fixedSize=1;" parent="1" vertex="1">
          <mxGeometry x="710" y="1130" width="120" height="60" as="geometry" />
        </mxCell>
        <mxCell id="hCytQc41rhXUvgAOdrMq-91" style="edgeStyle=orthogonalEdgeStyle;rounded=0;orthogonalLoop=1;jettySize=auto;html=1;entryX=0.5;entryY=0;entryDx=0;entryDy=0;" parent="1" source="hCytQc41rhXUvgAOdrMq-92" target="hCytQc41rhXUvgAOdrMq-94" edge="1">
          <mxGeometry relative="1" as="geometry" />
        </mxCell>
        <mxCell id="hCytQc41rhXUvgAOdrMq-92" value="vida = vida - da침oRecibido" style="rounded=0;whiteSpace=wrap;html=1;" parent="1" vertex="1">
          <mxGeometry x="710" y="1240" width="120" height="60" as="geometry" />
        </mxCell>
        <mxCell id="hCytQc41rhXUvgAOdrMq-93" style="edgeStyle=orthogonalEdgeStyle;rounded=0;orthogonalLoop=1;jettySize=auto;html=1;" parent="1" source="hCytQc41rhXUvgAOdrMq-94" target="hCytQc41rhXUvgAOdrMq-98" edge="1">
          <mxGeometry relative="1" as="geometry" />
        </mxCell>
        <mxCell id="hCytQc41rhXUvgAOdrMq-94" value="vidaActual = vida" style="shape=document;whiteSpace=wrap;html=1;boundedLbl=1;" parent="1" vertex="1">
          <mxGeometry x="710" y="1350" width="120" height="70" as="geometry" />
        </mxCell>
        <mxCell id="hCytQc41rhXUvgAOdrMq-95" value="Fin" style="ellipse;whiteSpace=wrap;html=1;" parent="1" vertex="1">
          <mxGeometry x="975" y="1540" width="120" height="80" as="geometry" />
        </mxCell>
        <mxCell id="hCytQc41rhXUvgAOdrMq-96" style="edgeStyle=orthogonalEdgeStyle;rounded=0;orthogonalLoop=1;jettySize=auto;html=1;entryX=1;entryY=0.5;entryDx=0;entryDy=0;" parent="1" source="hCytQc41rhXUvgAOdrMq-98" target="hCytQc41rhXUvgAOdrMq-90" edge="1">
          <mxGeometry relative="1" as="geometry">
            <mxPoint x="940" y="1160" as="targetPoint" />
            <Array as="points">
              <mxPoint x="940" y="1500" />
              <mxPoint x="940" y="1160" />
            </Array>
          </mxGeometry>
        </mxCell>
        <mxCell id="hCytQc41rhXUvgAOdrMq-97" value="False&lt;div&gt;&lt;br&gt;&lt;/div&gt;" style="edgeLabel;html=1;align=center;verticalAlign=middle;resizable=0;points=[];" parent="hCytQc41rhXUvgAOdrMq-96" connectable="0" vertex="1">
          <mxGeometry x="-0.3391" y="4" relative="1" as="geometry">
            <mxPoint as="offset" />
          </mxGeometry>
        </mxCell>
        <mxCell id="hCytQc41rhXUvgAOdrMq-98" value="getIsDead()" style="rhombus;whiteSpace=wrap;html=1;" parent="1" vertex="1">
          <mxGeometry x="695" y="1460" width="150" height="80" as="geometry" />
        </mxCell>
        <mxCell id="hCytQc41rhXUvgAOdrMq-99" style="edgeStyle=orthogonalEdgeStyle;rounded=0;orthogonalLoop=1;jettySize=auto;html=1;entryX=0.5;entryY=1;entryDx=0;entryDy=0;" parent="1" source="hCytQc41rhXUvgAOdrMq-100" target="hCytQc41rhXUvgAOdrMq-95" edge="1">
          <mxGeometry relative="1" as="geometry" />
        </mxCell>
        <mxCell id="hCytQc41rhXUvgAOdrMq-100" value="Muerte()" style="rounded=0;whiteSpace=wrap;html=1;" parent="1" vertex="1">
          <mxGeometry x="630" y="1610" width="120" height="60" as="geometry" />
        </mxCell>
        <mxCell id="hCytQc41rhXUvgAOdrMq-101" style="edgeStyle=orthogonalEdgeStyle;rounded=0;orthogonalLoop=1;jettySize=auto;html=1;entryX=0.35;entryY=-0.017;entryDx=0;entryDy=0;entryPerimeter=0;" parent="1" source="hCytQc41rhXUvgAOdrMq-98" target="hCytQc41rhXUvgAOdrMq-100" edge="1">
          <mxGeometry relative="1" as="geometry">
            <Array as="points">
              <mxPoint x="672" y="1500" />
            </Array>
          </mxGeometry>
        </mxCell>
        <mxCell id="hCytQc41rhXUvgAOdrMq-102" value="True" style="edgeLabel;html=1;align=center;verticalAlign=middle;resizable=0;points=[];" parent="hCytQc41rhXUvgAOdrMq-101" connectable="0" vertex="1">
          <mxGeometry x="-0.2786" y="1" relative="1" as="geometry">
            <mxPoint as="offset" />
          </mxGeometry>
        </mxCell>
        <mxCell id="hCytQc41rhXUvgAOdrMq-105" value="&lt;h1 style=&quot;margin-top: 0px;&quot;&gt;Da침o de un golpe&lt;/h1&gt;&lt;div&gt;&lt;br&gt;&lt;/div&gt;" style="text;html=1;whiteSpace=wrap;overflow=hidden;rounded=0;" parent="1" vertex="1">
          <mxGeometry x="195" y="600" width="215" height="50" as="geometry" />
        </mxCell>
        <mxCell id="hCytQc41rhXUvgAOdrMq-106" value="&lt;h1 style=&quot;margin-top: 0px;&quot;&gt;&lt;span style=&quot;background-color: initial;&quot;&gt;Da침o constante&lt;/span&gt;&lt;br&gt;&lt;/h1&gt;" style="text;html=1;whiteSpace=wrap;overflow=hidden;rounded=0;" parent="1" vertex="1">
          <mxGeometry x="820" y="690" width="190" height="40" as="geometry" />
        </mxCell>
      </root>
    </mxGraphModel>
  </diagram>
</mxfile>
